<svg xmlns="http://www.w3.org/2000/svg" viewBox="0 0 210 210"><defs><linearGradient id="bg-lg" x1="0" y1="0" x2="1" y2="1"><stop offset="0" stop-color="#1F78BE"/><stop offset="1" stop-color="#123F73"/></linearGradient><mask id="gap-lg" maskUnits="userSpaceOnUse" x="0" y="0" width="210" height="210"><rect width="210" height="210" fill="#fff"/><path d="M27,105 H77" stroke="#000" stroke-width="19" stroke-linecap="round"/></mask></defs><rect width="210" height="210" rx="48" fill="url(#bg-lg)"/><path d="M0,48 A48,48 0 0 1 48,0 H162 A48,48 0 0 1 210,48 V70 C140,40 70,40 0,70 Z" fill="#fff" opacity=".07"/><path d="M145,65 A56,56 0 1 0 161,105" fill="none" stroke="#fff" stroke-width="20" stroke-linecap="round" mask="url(#gap-lg)" /><path d="M27,105 H77 L84,87 L92,123 L98,105 H103" fill="none" stroke="#fff" stroke-width="10" stroke-linecap="round" stroke-linejoin="round" /><path d="M107,90 L131,105 L107,120 Z" fill="#5EE0C4" stroke="#5EE0C4" stroke-width="7" stroke-linejoin="round" /><path d="M133,105 H161" stroke="#fff" stroke-width="20" stroke-linecap="round" /></svg>
