<svg class="scene scene-case" viewBox="0 0 160 200" role="img" aria-label="A patient beside a blood sample tube">
  <g class="sc-pop" style="--i:0"><path class="sc-o" d="M26 200 C26 122 50.0 112 80.0 112 C110.0 112 134 122 134 200 Z" fill="#9CC3E6"/><rect class="sc-o" x="72" y="86" width="16" height="18" rx="4" fill="#5E3A24"/><circle class="sc-o" cx="80" cy="64" r="28" fill="#5E3A24"/><path class="sc-o" d="M 52.0,62.0 C 48.0,36.0 70.0,28.0 82.0,30.0 C 102.0,32.0 112.0,46.0 108.0,62.0 C 100.0,50.0 80.0,46.0 66.0,50.0 C 58.0,54.0 54.0,58.0 52.0,62.0 Z" fill="#15100C"/><circle cx="70.0" cy="66.0" r="3" fill="#22303F"/><circle cx="90.0" cy="66.0" r="3" fill="#22303F"/><path class="sc-f" d="M74 77.0 q6 2 12 0"/></g>
  <g class="sc-pop" style="--i:1"><g transform="rotate(14 136 60)"><rect class="sc-o" x="126" y="30" width="20" height="62" rx="10" fill="#FFFFFF"/><path d="M128.5 62 h15 v19 a7.5 7.5 0 0 1 -15 0 Z" fill="#C8414B"/><rect class="sc-o" x="123" y="22" width="26" height="12" rx="3" fill="#6A60D0"/></g></g>
</svg>
