<svg class="scene scene-case" viewBox="0 0 160 200" role="img" aria-label="A donor beside a bag of blood">
  <g class="sc-pop" style="--i:0"><path class="sc-o" d="M26 200 C26 122 50 112 80 112 C110 112 134 122 134 200 Z" fill="#9FC5E8"/><rect class="sc-o" x="72" y="86" width="16" height="18" rx="4" fill="#5C3A24"/><circle class="sc-o" cx="80" cy="64" r="28" fill="#5C3A24"/><path class="sc-o" d="M52 62 C50 38 70 30 82 32 C100 34 110 46 108 62 C98 50 70 48 52 62 Z" fill="#15100C"/><circle cx="70" cy="66" r="3" fill="#22303F"/><circle cx="90" cy="66" r="3" fill="#22303F"/><path class="sc-f" d="M74 77 q6 5 12 0"/></g>
  <g class="sc-pop" style="--i:1"><g transform="translate(114 84)"><path class="sc-o" d="M0 8 h40 v44 a10 10 0 0 1 -10 10 h-20 a10 10 0 0 1 -10 -10 z" fill="#E24B4A"/><rect class="sc-o" x="12" y="-4" width="16" height="12" rx="3" fill="#FFFFFF"/><path d="M20 26 c6 8 8 12 8 16 a8 8 0 0 1 -16 0 c0 -4 2 -8 8 -16z" fill="#FFFFFF"/></g></g>
</svg>
