<svg class="scene scene-ward" viewBox="0 0 400 300" role="img" aria-label="A patient in a hospital bed under a calendar with days crossed off">
  <ellipse class="sc-shadow" cx="200" cy="292" rx="170" ry="7"/>
  <g class="sc-pop" style="--i:0"><g transform="translate(50 140)"><g class="sc-bed"><rect x="0" y="0" width="8" height="120" rx="4"/><rect x="6" y="70" width="230" height="22" rx="6"/><circle cx="20" cy="136" r="5"/><circle cx="220" cy="136" r="5"/></g><path class="sc-f" d="M20 92 v39 M220 92 v39"/><ellipse class="sc-pillow" cx="44" cy="62" rx="30" ry="12"/><path class="sc-o" d="M70 56 C80 40 190 42 230 54 L230 72 L64 72 Z" fill="#9FC5E8"/><circle class="sc-o" cx="48" cy="44" r="18" fill="#E3B58E"/><path class="sc-o" d="M30 42 C30 26 50 22 62 30 C56 32 42 32 30 42Z" fill="#15100C"/><circle cx="44" cy="46" r="2.5" fill="#22303F"/><circle cx="56" cy="46" r="2.5" fill="#22303F"/><path class="sc-f" d="M46 54 q4 2 8 0"/></g></g>
  <g class="sc-pop" style="--i:1"><g transform="translate(240 20)"><rect class="sc-o" x="0" y="0" width="120" height="100" rx="8" fill="#FFFFFF"/><rect class="sc-o" x="0" y="0" width="120" height="22" rx="8" fill="#D85A30"/><rect x="9" y="31" width="14" height="14" rx="2" fill="#E6EBF1"/><path d="M11 33 l10 10 M21 33 l-10 10" stroke="#22303F" stroke-width="2.2" stroke-linecap="round"/><rect x="29" y="31" width="14" height="14" rx="2" fill="#E6EBF1"/><path d="M31 33 l10 10 M41 33 l-10 10" stroke="#22303F" stroke-width="2.2" stroke-linecap="round"/><rect x="49" y="31" width="14" height="14" rx="2" fill="#E6EBF1"/><path d="M51 33 l10 10 M61 33 l-10 10" stroke="#22303F" stroke-width="2.2" stroke-linecap="round"/><rect x="69" y="31" width="14" height="14" rx="2" fill="#E6EBF1"/><path d="M71 33 l10 10 M81 33 l-10 10" stroke="#22303F" stroke-width="2.2" stroke-linecap="round"/><rect x="89" y="31" width="14" height="14" rx="2" fill="#E6EBF1"/><path d="M91 33 l10 10 M101 33 l-10 10" stroke="#22303F" stroke-width="2.2" stroke-linecap="round"/><rect x="9" y="51" width="14" height="14" rx="2" fill="#E6EBF1"/><path d="M11 53 l10 10 M21 53 l-10 10" stroke="#22303F" stroke-width="2.2" stroke-linecap="round"/><rect x="29" y="51" width="14" height="14" rx="2" fill="#E6EBF1"/><path d="M31 53 l10 10 M41 53 l-10 10" stroke="#22303F" stroke-width="2.2" stroke-linecap="round"/><rect x="49" y="51" width="14" height="14" rx="2" fill="#E6EBF1"/><path d="M51 53 l10 10 M61 53 l-10 10" stroke="#22303F" stroke-width="2.2" stroke-linecap="round"/><rect x="69" y="51" width="14" height="14" rx="2" fill="#E6EBF1"/><path d="M71 53 l10 10 M81 53 l-10 10" stroke="#22303F" stroke-width="2.2" stroke-linecap="round"/><rect x="89" y="51" width="14" height="14" rx="2" fill="#E6EBF1"/><rect x="9" y="71" width="14" height="14" rx="2" fill="#E6EBF1"/><rect x="29" y="71" width="14" height="14" rx="2" fill="#E6EBF1"/><rect x="49" y="71" width="14" height="14" rx="2" fill="#E6EBF1"/><rect x="69" y="71" width="14" height="14" rx="2" fill="#E6EBF1"/><rect x="89" y="71" width="14" height="14" rx="2" fill="#E6EBF1"/></g></g>
</svg>
