<svg class="scene scene-story" viewBox="0 0 300 340" role="img" aria-label="An astronomer looking at a star through a telescope">
  <ellipse class="sc-shadow" cx="150" cy="334" rx="130" ry="6"/>
  <g class="sc-pop" style="--i:0"><g transform="translate(0 130) scale(1.05)"><path class="sc-o" d="M26 200 C26 122 50 112 80 112 C110 112 134 122 134 200 Z" fill="#2F4A6D"/><rect class="sc-o" x="72" y="86" width="16" height="18" rx="4" fill="#E3B58E"/><circle class="sc-o" cx="80" cy="64" r="28" fill="#E3B58E"/><path class="sc-o" d="M52 62 C50 38 70 30 82 32 C100 34 110 46 108 62 C98 50 70 48 52 62 Z" fill="#6B4226"/><circle cx="70" cy="66" r="3" fill="#22303F"/><circle cx="90" cy="66" r="3" fill="#22303F"/><path class="sc-f" d="M74 77 q6 5 12 0"/></g></g>
  <g class="sc-pop" style="--i:1"><path class="sc-f" d="M178 176 L150 330 M178 176 L208 330 M178 176 L180 330"/><g transform="translate(116 206) rotate(-38)"><rect class="sc-o" x="0" y="-8" width="28" height="16" rx="3" fill="#8C6A3E"/><rect class="sc-o" x="24" y="-12" width="120" height="24" rx="5" fill="#C9A36B"/><rect class="sc-o" x="138" y="-16" width="20" height="32" rx="5" fill="#8C6A3E"/></g></g>
  <g class="sc-pop" style="--i:2"><path class="sc-o" d="M262.0 32.0 L266.8 43.4 L279.1 44.4 L269.7 52.5 L272.6 64.6 L262.0 58.1 L251.4 64.6 L254.3 52.5 L244.9 44.4 L257.2 43.4 Z" fill="#F2B84B" stroke-width="2.5"/></g>
</svg>
