<svg class="scene scene-story" viewBox="0 0 300 340" role="img" aria-label="A shoemaker in front of a shelf of shoes; later a bag of blood">
  <ellipse class="sc-shadow" cx="150" cy="334" rx="130" ry="6"/>
  <g class="sc-pop" style="--i:0"><g transform="translate(-10 130) scale(1.05)"><path class="sc-o" d="M26 200 C26 122 50 112 80 112 C110 112 134 122 134 200 Z" fill="#6B4226"/><rect class="sc-o" x="72" y="86" width="16" height="18" rx="4" fill="#B97A50"/><circle class="sc-o" cx="80" cy="64" r="28" fill="#B97A50"/><path class="sc-o" d="M53 70 C50 58 54 50 58 48 L60 66 Z" fill="#2B1B12"/><path class="sc-o" d="M107 70 C110 58 106 50 102 48 L100 66 Z" fill="#2B1B12"/><circle cx="70" cy="66" r="3" fill="#22303F"/><circle cx="90" cy="66" r="3" fill="#22303F"/><path class="sc-f" d="M74 77 q6 5 12 0"/><path class="sc-o" d="M58 132 H102 V200 H58 Z" fill="#E6D3B3"/></g></g>
  <g class="sc-pop" style="--i:1"><g data-until="4"><rect class="sc-o" x="150" y="96" width="140" height="10" rx="3" fill="#8C6A3E"/><g transform="translate(156 64) scale(0.9)"><path class="sc-o" d="M0 26 V6 Q0 0 6 0 H22 L32 12 Q50 14 58 18 Q66 22 66 28 V32 H0 Z" fill="#D85A30"/><path class="sc-f" d="M0 26 H66"/></g><g transform="translate(222 64) scale(0.9)"><path class="sc-o" d="M0 26 V6 Q0 0 6 0 H22 L32 12 Q50 14 58 18 Q66 22 66 28 V32 H0 Z" fill="#3A7BC8"/><path class="sc-f" d="M0 26 H66"/></g><rect class="sc-o" x="150" y="176" width="140" height="10" rx="3" fill="#8C6A3E"/><g transform="translate(156 144) scale(0.9)"><path class="sc-o" d="M0 26 V6 Q0 0 6 0 H22 L32 12 Q50 14 58 18 Q66 22 66 28 V32 H0 Z" fill="#1D9E75"/><path class="sc-f" d="M0 26 H66"/></g><g transform="translate(222 144) scale(0.9)"><path class="sc-o" d="M0 26 V6 Q0 0 6 0 H22 L32 12 Q50 14 58 18 Q66 22 66 28 V32 H0 Z" fill="#C9A36B"/><path class="sc-f" d="M0 26 H66"/></g></g></g>
  <g data-beat="4"><g transform="translate(196 70) scale(1.6)"><path class="sc-o" d="M0 8 h40 v44 a10 10 0 0 1 -10 10 h-20 a10 10 0 0 1 -10 -10 z" fill="#E24B4A"/><rect class="sc-o" x="12" y="-4" width="16" height="12" rx="3" fill="#FFFFFF"/><path d="M20 26 c6 8 8 12 8 16 a8 8 0 0 1 -16 0 c0 -4 2 -8 8 -16z" fill="#FFFFFF"/></g></g>
</svg>
